<svg width="16" height="24" viewBox="0 0 16 24" fill="none" xmlns="http://www.w3.org/2000/svg">
<path fill-rule="evenodd" clip-rule="evenodd" d="M0.775072 13.8288C0.278769 13.3835 0 12.7799 0 12.1505C0 11.5211 0.278769 10.9175 0.775072 10.4721L10.7682 1.51364C11.2654 1.06831 11.9396 0.818211 12.6426 0.818359C12.9907 0.818433 13.3353 0.879942 13.6568 0.999375C13.9784 1.11881 14.2705 1.29383 14.5166 1.51444C14.7626 1.73504 14.9578 1.99693 15.0909 2.28513C15.224 2.57333 15.2925 2.8822 15.2924 3.19412C15.2923 3.50604 15.2237 3.81488 15.0904 4.10303C14.9572 4.39117 14.7619 4.65297 14.5157 4.87348L6.39711 12.1505L14.5175 19.4275C14.7707 19.6465 14.9727 19.9084 15.1118 20.1981C15.2508 20.4878 15.3241 20.7995 15.3273 21.1148C15.3305 21.4302 15.2636 21.7429 15.1305 22.0349C14.9974 22.3268 14.8008 22.592 14.5521 22.8151C14.3034 23.0382 14.0075 23.2147 13.6819 23.3343C13.3563 23.4538 13.0073 23.5141 12.6554 23.5115C12.3035 23.5089 11.9557 23.4435 11.6323 23.3192C11.3089 23.1949 11.0164 23.014 10.7718 22.7873L0.771538 13.8288H0.775072Z" fill="#8EBD90"/>
</svg>
