<svg width="16" height="24" viewBox="0 0 16 24" fill="none" xmlns="http://www.w3.org/2000/svg">
<path fill-rule="evenodd" clip-rule="evenodd" d="M14.9788 10.5013C15.4751 10.9466 15.7539 11.5502 15.7539 12.1796C15.7539 12.809 15.4751 13.4126 14.9788 13.8579L4.98566 22.8164C4.48849 23.2618 3.81426 23.5119 3.11132 23.5117C2.76325 23.5116 2.41861 23.4501 2.09708 23.3307C1.77554 23.2113 1.4834 23.0363 1.23734 22.8156C0.991279 22.595 0.796115 22.3332 0.662992 22.045C0.52987 21.7567 0.461394 21.4479 0.461476 21.136C0.461558 20.824 0.530197 20.5152 0.663471 20.2271C0.796745 19.9389 0.992045 19.6771 1.23822 19.4566L9.35679 12.1796L1.23645 4.9026C0.983216 4.68362 0.781179 4.42163 0.642133 4.13194C0.503086 3.84223 0.429816 3.53062 0.426594 3.21527C0.423371 2.89992 0.490262 2.58716 0.623365 2.29522C0.756468 2.00329 0.953115 1.73804 1.20183 1.51493C1.45055 1.29184 1.74637 1.11536 2.07201 0.995806C2.39765 0.876251 2.7466 0.816011 3.09849 0.818604C3.45039 0.821194 3.79819 0.88656 4.12159 1.01089C4.445 1.13523 4.73753 1.31603 4.98213 1.54276L14.9824 10.5013H14.9788Z" fill="#8EBD90"/>
</svg>
